<mxfile host="app.diagrams.net" modified="2021-11-18T07:02:49.797Z" agent="5.0 (X11; Linux x86_64) AppleWebKit/537.36 (KHTML, like Gecko) Chrome/92.0.4515.40 Safari/537.36 Edg/92.0.902.9" etag="cDwuGdrtthTJnqn5xFRQ" version="15.7.3" type="github">
  <diagram id="QuWYMFL5e3HPU13Q_Ody" name="Page-1">
    <mxGraphModel dx="1408" dy="711" grid="1" gridSize="10" guides="1" tooltips="1" connect="1" arrows="1" fold="1" page="1" pageScale="1" pageWidth="827" pageHeight="1169" math="0" shadow="0">
      <root>
        <mxCell id="0" />
        <mxCell id="1" parent="0" />
        <mxCell id="PdEomYgr19nXdc65woH1-9" value="" style="verticalLabelPosition=bottom;verticalAlign=top;html=1;shape=mxgraph.basic.rect;fillColor2=none;strokeWidth=1;size=20;indent=5;fillColor=#f9f7ed;strokeColor=none;" vertex="1" parent="1">
          <mxGeometry x="440" y="175" width="240" height="335" as="geometry" />
        </mxCell>
        <mxCell id="PdEomYgr19nXdc65woH1-8" value="" style="verticalLabelPosition=bottom;verticalAlign=top;html=1;shape=mxgraph.basic.rect;fillColor2=none;strokeWidth=1;size=20;indent=5;fillColor=#FFFBC2;strokeColor=none;" vertex="1" parent="1">
          <mxGeometry x="100" y="170" width="230" height="340" as="geometry" />
        </mxCell>
        <mxCell id="PdEomYgr19nXdc65woH1-5" value="" style="rounded=0;whiteSpace=wrap;html=1;fontSize=14;fillColor=none;strokeColor=#009900;strokeWidth=2;glass=0;shadow=0;sketch=0;" vertex="1" parent="1">
          <mxGeometry x="482.5" y="230" width="165" height="260" as="geometry" />
        </mxCell>
        <mxCell id="OwGhvqajabSdBus2EmIz-28" value="" style="rounded=0;whiteSpace=wrap;html=1;fontSize=14;fontColor=#ffffff;fillColor=none;strokeColor=#FF0000;strokeWidth=2;" parent="1" vertex="1">
          <mxGeometry x="126.5" y="229" width="183.5" height="262" as="geometry" />
        </mxCell>
        <mxCell id="OwGhvqajabSdBus2EmIz-8" value="&lt;div&gt;&lt;b&gt;&lt;font color=&quot;#4d4d4d&quot; style=&quot;font-size: 14px&quot;&gt;渠道IOS App&lt;/font&gt;&lt;/b&gt;&lt;/div&gt;" style="rounded=0;whiteSpace=wrap;html=1;strokeColor=none;fillColor=#dae8fc;gradientColor=#7ea6e0;align=center;" parent="1" vertex="1">
          <mxGeometry x="147.75" y="260" width="134.5" height="30" as="geometry" />
        </mxCell>
        <mxCell id="OwGhvqajabSdBus2EmIz-9" value="&lt;font color=&quot;#333333&quot;&gt;渠道接入层&lt;/font&gt;" style="text;html=1;align=center;verticalAlign=middle;resizable=0;points=[];autosize=1;strokeColor=none;fillColor=none;fontStyle=1;fontSize=14;" parent="1" vertex="1">
          <mxGeometry x="168.88" y="190" width="90" height="20" as="geometry" />
        </mxCell>
        <mxCell id="OwGhvqajabSdBus2EmIz-11" value="&lt;b style=&quot;font-size: 14px;&quot;&gt;&lt;font style=&quot;font-size: 14px;&quot;&gt;渠道Pad智能终端&lt;/font&gt;&lt;/b&gt;" style="rounded=0;whiteSpace=wrap;html=1;strokeColor=none;fillColor=#dae8fc;gradientColor=#7ea6e0;fontSize=14;fontColor=#4D4D4D;" parent="1" vertex="1">
          <mxGeometry x="147.75" y="360" width="132.25" height="35.42" as="geometry" />
        </mxCell>
        <mxCell id="OwGhvqajabSdBus2EmIz-12" value="&lt;b style=&quot;font-size: 14px;&quot;&gt;&lt;font style=&quot;font-size: 14px;&quot;&gt;渠道Web电脑端&lt;/font&gt;&lt;/b&gt;" style="rounded=0;whiteSpace=wrap;html=1;strokeColor=none;fillColor=#dae8fc;gradientColor=#7ea6e0;fontSize=14;fontColor=#4D4D4D;" parent="1" vertex="1">
          <mxGeometry x="147.75" y="410" width="132.25" height="31.87" as="geometry" />
        </mxCell>
        <mxCell id="OwGhvqajabSdBus2EmIz-13" value="&lt;font color=&quot;#333333&quot;&gt;天津邮储中台&lt;/font&gt;" style="text;html=1;align=center;verticalAlign=middle;resizable=0;points=[];autosize=1;strokeColor=none;fillColor=none;fontSize=14;fontColor=#2B41FF;fontStyle=1" parent="1" vertex="1">
          <mxGeometry x="510" y="190" width="100" height="20" as="geometry" />
        </mxCell>
        <mxCell id="OwGhvqajabSdBus2EmIz-24" value="" style="rounded=0;whiteSpace=wrap;html=1;fontSize=14;fontColor=#ffffff;fillColor=#FFFFFF;strokeColor=#FF0000;strokeWidth=3;" parent="1" vertex="1">
          <mxGeometry x="264" y="552" width="70" height="20" as="geometry" />
        </mxCell>
        <mxCell id="OwGhvqajabSdBus2EmIz-25" value="&lt;font color=&quot;#000000&quot; size=&quot;1&quot;&gt;&lt;b style=&quot;font-size: 16px&quot;&gt;主系统&lt;/b&gt;&lt;/font&gt;" style="text;html=1;align=center;verticalAlign=middle;resizable=0;points=[];autosize=1;strokeColor=none;fillColor=none;fontSize=14;fontColor=#2B41FF;" parent="1" vertex="1">
          <mxGeometry x="334" y="552" width="60" height="20" as="geometry" />
        </mxCell>
        <mxCell id="OwGhvqajabSdBus2EmIz-26" value="" style="rounded=0;whiteSpace=wrap;html=1;fontSize=14;fontColor=#ffffff;fillColor=#FFFFFF;strokeColor=#009900;strokeWidth=3;" parent="1" vertex="1">
          <mxGeometry x="424" y="552" width="70" height="20" as="geometry" />
        </mxCell>
        <mxCell id="OwGhvqajabSdBus2EmIz-27" value="&lt;font color=&quot;#000000&quot;&gt;&lt;span style=&quot;font-size: 16px&quot;&gt;&lt;b&gt;相关系统&lt;/b&gt;&lt;/span&gt;&lt;/font&gt;" style="text;html=1;align=center;verticalAlign=middle;resizable=0;points=[];autosize=1;strokeColor=none;fillColor=none;fontSize=14;fontColor=#2B41FF;" parent="1" vertex="1">
          <mxGeometry x="490" y="552" width="80" height="20" as="geometry" />
        </mxCell>
        <mxCell id="OwGhvqajabSdBus2EmIz-19" value="&lt;b style=&quot;font-size: 15px&quot;&gt;&lt;font color=&quot;#4d4d4d&quot;&gt;车贷管理平台&lt;/font&gt;&lt;/b&gt;" style="rounded=0;whiteSpace=wrap;html=1;fillColor=#d5e8d4;strokeColor=none;fontSize=15;gradientColor=#00994D;" parent="1" vertex="1">
          <mxGeometry x="510" y="270" width="120" height="50" as="geometry" />
        </mxCell>
        <mxCell id="PdEomYgr19nXdc65woH1-3" value="&lt;b&gt;&lt;font color=&quot;#4d4d4d&quot; style=&quot;font-size: 14px&quot;&gt;渠道Android App&lt;/font&gt;&lt;/b&gt;" style="rounded=0;whiteSpace=wrap;html=1;strokeColor=none;fillColor=#dae8fc;gradientColor=#7ea6e0;" vertex="1" parent="1">
          <mxGeometry x="147.75" y="310" width="132.25" height="32.52" as="geometry" />
        </mxCell>
        <mxCell id="PdEomYgr19nXdc65woH1-7" value="" style="html=1;shadow=0;dashed=0;align=center;verticalAlign=middle;shape=mxgraph.arrows2.arrow;dy=0.5;dx=24;notch=0;fillColor=none;strokeColor=default;" vertex="1" parent="1">
          <mxGeometry x="351" y="340" width="60" height="20" as="geometry" />
        </mxCell>
        <mxCell id="PdEomYgr19nXdc65woH1-11" value="&lt;b style=&quot;font-size: 15px&quot;&gt;&lt;font color=&quot;#4d4d4d&quot;&gt;...&lt;/font&gt;&lt;/b&gt;" style="rounded=0;whiteSpace=wrap;html=1;fillColor=#d5e8d4;strokeColor=none;fontSize=15;gradientColor=#00994D;" vertex="1" parent="1">
          <mxGeometry x="510" y="352.71000000000004" width="120" height="50" as="geometry" />
        </mxCell>
      </root>
    </mxGraphModel>
  </diagram>
</mxfile>
